<?xml version="1.0" encoding="UTF-8"?>
<svg xmlns="http://www.w3.org/2000/svg" xmlns:xlink="http://www.w3.org/1999/xlink" width="676px" height="203px" viewBox="0 0 676 203" version="1.1">
<defs>
<linearGradient id="linear0" gradientUnits="userSpaceOnUse" x1="-32.21" y1="147.14" x2="496.91" y2="147.14" gradientTransform="matrix(0.652157,-0.0185645,0.0185581,0.652381,17.928542,9.617384)">
<stop offset="0" style="stop-color:rgb(94.117647%,64.705882%,12.156863%);stop-opacity:1;"/>
<stop offset="0.14" style="stop-color:rgb(97.647059%,78.431373%,4.705882%);stop-opacity:1;"/>
<stop offset="0.33" style="stop-color:rgb(48.235294%,72.54902%,23.529412%);stop-opacity:1;"/>
<stop offset="0.52" style="stop-color:rgb(2.745098%,60.784314%,67.843137%);stop-opacity:1;"/>
<stop offset="0.66" style="stop-color:rgb(16.078431%,57.647059%,81.176471%);stop-opacity:1;"/>
<stop offset="0.84" style="stop-color:rgb(70.980392%,23.137255%,65.882353%);stop-opacity:1;"/>
<stop offset="1" style="stop-color:rgb(46.666667%,33.72549%,65.490196%);stop-opacity:1;"/>
</linearGradient>
</defs>
<g id="surface1">
<path style=" stroke:none;fill-rule:nonzero;fill:rgb(100%,100%,100%);fill-opacity:1;" d="M 491.878906 6.28125 L 491.878906 113.015625 L 479.230469 113.015625 L 479.230469 32.207031 L 442.796875 102.953125 L 431.675781 102.953125 L 395.242188 32.207031 L 395.242188 113.015625 L 382.59375 113.015625 L 382.59375 6.28125 L 396.007812 6.28125 L 437.3125 86.335938 L 478.464844 6.28125 Z M 491.878906 6.28125 "/>
<path style=" stroke:none;fill-rule:nonzero;fill:rgb(100%,100%,100%);fill-opacity:1;" d="M 501.171875 34.644531 L 513.671875 34.644531 L 513.671875 113.324219 L 501.171875 113.324219 Z M 501.171875 34.644531 "/>
<path style=" stroke:none;fill-rule:nonzero;fill:rgb(100%,100%,100%);fill-opacity:1;" d="M 522.96875 77.027344 L 522.96875 34.644531 L 535.617188 34.644531 L 535.617188 44.859375 C 541.867188 38.457031 550.09375 34.644531 558.9375 34.644531 C 569.144531 34.644531 578.292969 39.527344 584.851562 47.609375 C 591.101562 55.082031 595.0625 65.601562 595.0625 77.035156 L 595.0625 113.023438 L 582.410156 113.023438 L 582.410156 77.035156 C 582.410156 68.5 579.664062 60.875 575.246094 55.539062 C 570.980469 50.355469 565.1875 47.300781 558.9375 47.300781 C 552.6875 47.300781 547.050781 50.347656 542.78125 55.539062 C 538.359375 60.875 535.617188 68.5 535.617188 77.035156 L 535.617188 113.023438 L 522.96875 113.023438 Z M 522.96875 77.027344 "/>
<path style=" stroke:none;fill-rule:nonzero;fill:rgb(100%,100%,100%);fill-opacity:1;" d="M 663.5 103.257812 C 656.941406 109.359375 648.558594 113.015625 639.417969 113.015625 C 629.207031 113.015625 619.910156 108.441406 613.203125 101.273438 C 606.804688 94.257812 602.6875 84.5 602.6875 73.832031 C 602.6875 63.160156 606.804688 53.398438 613.203125 46.386719 C 619.910156 39.070312 629.207031 34.644531 639.417969 34.644531 C 648.566406 34.644531 656.949219 38.308594 663.5 44.253906 L 663.5 6.132812 L 676 6.132812 L 676 113.015625 L 663.5 113.015625 Z M 663.5 73.832031 C 663.5 66.359375 660.601562 59.648438 656.1875 54.773438 C 651.917969 50.199219 645.976562 47.300781 639.417969 47.300781 C 632.863281 47.300781 626.769531 50.199219 622.5 54.773438 C 618.078125 59.65625 615.335938 66.363281 615.335938 73.832031 C 615.335938 81.296875 618.085938 88.011719 622.5 92.738281 C 626.769531 97.464844 632.710938 100.359375 639.417969 100.359375 C 646.125 100.359375 651.917969 97.464844 656.1875 92.738281 C 660.601562 88.011719 663.5 81.304688 663.5 73.832031 Z M 663.5 73.832031 "/>
<path style=" stroke:none;fill-rule:nonzero;fill:rgb(100%,100%,100%);fill-opacity:1;" d="M 394.121094 196.875 L 394.121094 121.558594 L 403.035156 121.558594 L 403.035156 148.421875 C 407.542969 144.230469 413.453125 141.652344 420.003906 141.652344 C 427.199219 141.652344 433.644531 144.765625 438.367188 149.929688 C 442.988281 154.871094 445.78125 161.75 445.78125 169.265625 C 445.78125 176.785156 442.988281 183.664062 438.367188 188.605469 C 433.644531 193.65625 427.199219 196.878906 420.003906 196.878906 C 413.453125 196.878906 407.542969 194.304688 403.035156 190 L 403.035156 196.878906 L 394.121094 196.878906 Z M 420.007812 187.953125 C 424.628906 187.953125 428.816406 185.910156 431.824219 182.582031 C 435.046875 179.253906 436.980469 174.519531 436.980469 169.261719 C 436.980469 164 434.9375 159.269531 431.824219 155.828125 C 428.816406 152.605469 424.628906 150.5625 420.007812 150.5625 C 415.390625 150.5625 411.097656 152.605469 408.089844 155.828125 C 404.976562 159.269531 403.039062 163.992188 403.039062 169.261719 C 403.039062 174.527344 404.972656 179.253906 408.089844 182.582031 C 411.097656 185.910156 415.285156 187.953125 420.007812 187.953125 Z M 420.007812 187.953125 "/>
<path style=" stroke:none;fill-rule:nonzero;fill:rgb(100%,100%,100%);fill-opacity:1;" d="M 451.15625 196.875 L 451.15625 121.558594 L 459.964844 121.558594 L 459.964844 196.875 Z M 451.15625 196.875 "/>
<path style=" stroke:none;fill-rule:nonzero;fill:rgb(100%,100%,100%);fill-opacity:1;" d="M 472.746094 188.597656 C 468.238281 183.660156 465.332031 176.78125 465.332031 169.261719 C 465.332031 161.742188 468.230469 154.863281 472.746094 149.921875 C 477.46875 144.765625 484.023438 141.648438 491.222656 141.648438 C 498.417969 141.648438 504.863281 144.761719 509.585938 149.921875 C 514.207031 154.863281 517 161.742188 517 169.261719 C 517 176.78125 514.207031 183.660156 509.585938 188.597656 C 504.863281 193.753906 498.417969 196.875 491.222656 196.875 C 484.023438 196.875 477.476562 193.761719 472.746094 188.597656 Z M 508.191406 169.261719 C 508.191406 163.992188 506.148438 159.269531 503.035156 155.941406 C 500.027344 152.613281 495.839844 150.570312 491.222656 150.570312 C 486.601562 150.570312 482.308594 152.613281 479.300781 155.941406 C 476.1875 159.269531 474.25 164 474.25 169.261719 C 474.25 174.519531 476.183594 179.253906 479.300781 182.582031 C 482.308594 185.910156 486.496094 187.953125 491.222656 187.953125 C 495.945312 187.953125 500.027344 185.910156 503.035156 182.582031 C 506.148438 179.253906 508.191406 174.519531 508.191406 169.261719 Z M 508.191406 169.261719 "/>
<path style=" stroke:none;fill-rule:nonzero;fill:rgb(100%,100%,100%);fill-opacity:1;" d="M 529.777344 188.597656 C 525.269531 183.660156 522.367188 176.78125 522.367188 169.261719 C 522.367188 161.742188 525.269531 154.863281 529.777344 149.921875 C 534.503906 144.765625 541.058594 141.648438 548.257812 141.648438 C 555.453125 141.648438 561.898438 144.761719 566.621094 149.921875 C 571.242188 154.863281 574.03125 161.742188 574.03125 169.261719 C 574.03125 176.78125 571.242188 183.660156 566.621094 188.597656 C 561.898438 193.753906 555.453125 196.875 548.257812 196.875 C 541.058594 196.875 534.507812 193.761719 529.777344 188.597656 Z M 565.21875 169.261719 C 565.21875 163.992188 563.175781 159.269531 560.066406 155.941406 C 557.058594 152.613281 552.867188 150.570312 548.25 150.570312 C 543.628906 150.570312 539.335938 152.613281 536.328125 155.941406 C 533.21875 159.269531 531.28125 164 531.28125 169.261719 C 531.28125 174.519531 533.210938 179.253906 536.328125 182.582031 C 539.335938 185.910156 543.527344 187.953125 548.25 187.953125 C 552.972656 187.953125 557.058594 185.910156 560.066406 182.582031 C 563.175781 179.253906 565.21875 174.519531 565.21875 169.261719 Z M 565.21875 169.261719 "/>
<path style=" stroke:none;fill-rule:nonzero;fill:rgb(100%,100%,100%);fill-opacity:1;" d="M 579.394531 169.261719 L 579.394531 141.648438 L 588.203125 141.648438 L 588.203125 147.664062 C 592.289062 143.90625 597.332031 141.648438 602.914062 141.648438 C 609.464844 141.648438 615.480469 144.871094 619.78125 150.027344 C 620.53125 150.992188 621.28125 152.070312 621.925781 153.140625 C 622.574219 152.0625 623.324219 150.992188 624.074219 150.027344 C 628.367188 144.871094 634.277344 141.648438 640.9375 141.648438 C 647.601562 141.648438 653.617188 144.871094 657.804688 150.027344 C 661.882812 155.078125 664.464844 161.847656 664.464844 169.261719 L 664.464844 196.875 L 655.554688 196.875 L 655.554688 169.261719 C 655.554688 163.890625 653.835938 159.15625 651.042969 155.726562 C 648.355469 152.5 644.8125 150.570312 640.945312 150.570312 C 637.078125 150.570312 633.535156 152.5 630.957031 155.726562 C 628.058594 159.164062 626.335938 163.890625 626.335938 169.261719 L 626.335938 196.875 L 617.53125 196.875 L 617.53125 169.261719 C 617.53125 163.890625 615.703125 159.15625 612.910156 155.726562 C 610.332031 152.5 606.792969 150.570312 602.921875 150.570312 C 599.054688 150.570312 595.40625 152.5 592.824219 155.726562 C 590.03125 159.164062 588.316406 163.890625 588.316406 169.261719 L 588.210938 169.261719 L 588.210938 196.875 L 579.402344 196.875 L 579.402344 169.261719 Z M 579.394531 169.261719 "/>
<path style=" stroke:none;fill-rule:nonzero;fill:url(#linear0);" d="M 340.800781 106.757812 C 336.109375 102.324219 329.960938 102.703125 328.808594 102.796875 C 328.832031 102.046875 328.9375 94.671875 322.8125 89.925781 C 317.3125 85.671875 311.0625 86.839844 310.140625 87.027344 C 309.699219 73.125 296.148438 61.058594 282.289062 62.226562 C 282.074219 58.859375 281.160156 51.953125 276.484375 45.089844 C 267.851562 32.421875 253.707031 30.605469 251.816406 30.398438 C 237.539062 28.8125 227.539062 36.734375 225.726562 38.222656 C 218.078125 24.121094 203.117188 14.257812 187.148438 12.78125 C 171.175781 11.308594 154.664062 18.269531 144.5625 30.730469 C 136.269531 23.824219 124.128906 21.894531 114.109375 25.886719 C 104.082031 29.882812 96.589844 39.625 95.3125 50.34375 C 95.652344 47.515625 78.96875 46.855469 77.160156 47.019531 C 70.734375 47.609375 64.394531 49.9375 59.265625 53.886719 C 48.652344 62.050781 43.535156 76.617188 47.007812 89.585938 C 40.195312 86.121094 32.433594 86.820312 27.546875 91.238281 C 23.550781 94.847656 22.820312 99.722656 22.652344 101.359375 C 20.871094 100.863281 15.488281 99.605469 10.097656 102.265625 C 2.207031 106.164062 -2.328125 116.75 1.214844 123.542969 C 6.242188 133.183594 19.839844 133.078125 30.613281 131.617188 C 32.253906 141.316406 42.265625 147.886719 52.070312 148.609375 C 61.875 149.335938 71.421875 145.503906 80.253906 141.175781 C 82.382812 144.207031 91.507812 156.457031 108.375 159.960938 C 131.421875 164.75 148.472656 148.945312 150.023438 147.457031 C 151.699219 151 153.566406 156.117188 154.152344 162.46875 C 155.394531 175.976562 150.003906 186.320312 147.558594 190.425781 C 154.003906 186.710938 161.96875 181.339844 170.097656 173.726562 C 178.445312 165.914062 184.421875 158.101562 188.582031 151.789062 C 194.765625 163.40625 207.289062 170.3125 220.414062 169.332031 C 233.195312 168.378906 245.015625 159.347656 249.296875 147.261719 C 255.984375 151.992188 265.960938 151.3125 271.949219 145.71875 C 275.882812 146.894531 290.953125 150.875 305.175781 142.800781 C 309.664062 140.257812 312.953125 137.136719 315.269531 134.429688 C 318.042969 135.152344 323.386719 136.125 329.621094 134.476562 C 333.460938 133.457031 340.773438 131.523438 343.886719 124.640625 C 346.304688 119.289062 345.90625 111.582031 340.800781 106.757812 Z M 340.800781 106.757812 "/>
<path style=" stroke:none;fill-rule:nonzero;fill:rgb(100%,100%,100%);fill-opacity:1;" d="M 278.734375 94.871094 C 277.507812 93.183594 266.554688 104.609375 247 109.316406 C 232.019531 112.917969 215.898438 112.839844 202.191406 119.863281 C 195.972656 123.046875 190.546875 127.558594 185.175781 132.035156 C 176.949219 119.933594 176.980469 101.628906 187.988281 91.996094 C 194.253906 86.511719 202.765625 84.574219 210.261719 80.957031 C 218.703125 76.886719 226.023438 70.515625 231.230469 62.714844 C 218.183594 71 204.070312 77.601562 189.351562 82.320312 C 188.71875 82.523438 188.027344 82.71875 187.40625 82.492188 C 186.566406 82.179688 186.1875 81.210938 185.925781 80.351562 C 183.570312 72.578125 182.519531 64.40625 182.847656 56.289062 C 179.453125 64.523438 178.933594 73.914062 181.378906 82.480469 C 181.785156 83.886719 182.265625 85.371094 181.941406 86.800781 C 181.671875 87.96875 180.898438 88.941406 180.148438 89.875 C 177.726562 92.867188 175.300781 95.863281 172.878906 98.855469 C 167.523438 91.40625 159.257812 86.742188 151.707031 81.527344 C 144.160156 76.316406 136.707031 69.71875 134.601562 60.792969 C 134.667969 69.269531 138.449219 77.65625 144.765625 83.3125 C 152.28125 90.054688 163.386719 93.410156 167.710938 102.527344 C 171.109375 109.679688 169.191406 118.328125 171.78125 125.8125 C 173.257812 130.074219 176.132812 133.789062 177.289062 138.15625 C 178.4375 142.523438 176.949219 148.226562 172.597656 149.386719 C 160.625 129.324219 140.898438 114.035156 118.492188 107.449219 C 111.140625 105.289062 103.566406 104.035156 96.0625 102.507812 C 88.257812 100.914062 81.078125 98.195312 73.605469 95.84375 C 75.953125 98.019531 79.894531 101.3125 85.390625 104.21875 C 96.238281 109.960938 102.996094 108.824219 115.679688 112.984375 C 126.785156 116.625 134.46875 121.714844 136.957031 123.425781 C 144.003906 128.289062 156.367188 136.992188 158.878906 151.523438 C 159.738281 156.507812 159.136719 160.445312 158.53125 164.371094 C 156.660156 176.597656 151.199219 185.484375 147.570312 190.414062 C 155.367188 183.730469 163.925781 175.570312 172.578125 165.742188 C 180.957031 156.226562 187.792969 147 193.324219 138.652344 C 200.621094 132.257812 207.292969 128.445312 211.972656 126.167969 C 234.664062 115.117188 249.480469 121.050781 267.308594 107.847656 C 274.257812 102.703125 279.660156 96.136719 278.742188 94.867188 Z M 278.734375 94.871094 "/>
</g>
</svg>
