<?xml version="1.0" encoding="UTF-8"?>
<svg id="Capa_1" data-name="Capa 1" xmlns="http://www.w3.org/2000/svg" xmlns:xlink="http://www.w3.org/1999/xlink" viewBox="0 0 1036.14 310.93">
  <defs>
    <style>
      .cls-1 {
        fill: url(#Degradado_sin_nombre_21);
      }

      .cls-1, .cls-2 {
        stroke-width: 0px;
      }

      .cls-2 {
        fill: #fff;
      }
    </style>
    <linearGradient id="Degradado_sin_nombre_21" data-name="Degradado sin nombre 21" x1="-32.21" y1="147.14" x2="496.91" y2="147.14" gradientTransform="translate(27.48 14.68) rotate(-1.63)" gradientUnits="userSpaceOnUse">
      <stop offset="0" stop-color="#f0a51f"/>
      <stop offset=".14" stop-color="#f9c80c"/>
      <stop offset=".33" stop-color="#7bb93c"/>
      <stop offset=".52" stop-color="#079bad"/>
      <stop offset=".66" stop-color="#2993cf"/>
      <stop offset=".84" stop-color="#b53ba8"/>
      <stop offset="1" stop-color="#7756a7"/>
    </linearGradient>
  </defs>
  <g>
    <g>
      <path class="cls-2" d="M753.93,9.57v163.54h-19.39V49.29l-55.84,108.4h-17.05l-55.84-108.4v123.82h-19.39V9.57h20.56l63.31,122.66,63.08-122.66h20.56Z"/>
      <path class="cls-2" d="M768.17,53.03h19.16v120.55h-19.16V53.03Z"/>
      <path class="cls-2" d="M801.58,117.97V53.03h19.39v15.65c9.58-9.81,22.19-15.65,35.74-15.65,15.65,0,29.67,7.48,39.72,19.86,9.58,11.45,15.65,27.57,15.65,45.09v55.14h-19.39v-55.14c0-13.08-4.21-24.76-10.98-32.94-6.54-7.94-15.42-12.62-25-12.62s-18.22,4.67-24.76,12.62c-6.78,8.18-10.98,19.86-10.98,32.94v55.14h-19.39v-55.14Z"/>
      <path class="cls-2" d="M1016.98,158.16c-10.05,9.35-22.9,14.95-36.91,14.95-15.65,0-29.9-7.01-40.18-17.99-9.81-10.75-16.12-25.7-16.12-42.05s6.31-31.31,16.12-42.05c10.28-11.21,24.53-17.99,40.18-17.99,14.02,0,26.87,5.61,36.91,14.72V9.34h19.16v163.77h-19.16v-14.95ZM1016.98,113.07c0-11.45-4.44-21.73-11.21-29.2-6.54-7.01-15.65-11.45-25.7-11.45s-19.39,4.44-25.93,11.45c-6.78,7.48-10.98,17.76-10.98,29.2s4.21,21.73,10.98,28.97c6.54,7.24,15.65,11.68,25.93,11.68s19.16-4.44,25.7-11.68c6.77-7.24,11.21-17.52,11.21-28.97Z"/>
    </g>
    <g>
      <path class="cls-2" d="M604.09,301.6v-115.4h13.66v41.16c6.91-6.42,15.97-10.37,26.01-10.37,11.03,0,20.91,4.77,28.15,12.68,7.08,7.57,11.36,18.11,11.36,29.63s-4.28,22.06-11.36,29.63c-7.24,7.74-17.12,12.68-28.15,12.68-10.04,0-19.1-3.95-26.01-10.54v10.54h-13.66ZM643.77,287.93c7.08,0,13.5-3.13,18.11-8.23,4.94-5.1,7.9-12.35,7.9-20.41s-3.13-15.31-7.9-20.58c-4.61-4.94-11.03-8.07-18.11-8.07s-13.66,3.13-18.27,8.07c-4.77,5.27-7.74,12.51-7.74,20.58s2.96,15.31,7.74,20.41c4.61,5.1,11.03,8.23,18.27,8.23Z"/>
      <path class="cls-2" d="M691.51,301.6v-115.4h13.5v115.4h-13.5Z"/>
      <path class="cls-2" d="M724.6,288.92c-6.91-7.57-11.36-18.11-11.36-29.63s4.44-22.06,11.36-29.63c7.24-7.9,17.29-12.68,28.32-12.68s20.91,4.77,28.15,12.68c7.08,7.57,11.36,18.11,11.36,29.63s-4.28,22.06-11.36,29.63c-7.24,7.9-17.12,12.68-28.15,12.68s-21.07-4.77-28.32-12.68ZM778.93,259.29c0-8.07-3.13-15.31-7.9-20.41-4.61-5.1-11.03-8.23-18.11-8.23s-13.66,3.13-18.27,8.23c-4.77,5.1-7.74,12.35-7.74,20.41s2.96,15.31,7.74,20.41c4.61,5.1,11.03,8.23,18.27,8.23s13.5-3.13,18.11-8.23c4.77-5.1,7.9-12.35,7.9-20.41Z"/>
      <path class="cls-2" d="M812.02,288.92c-6.91-7.57-11.36-18.11-11.36-29.63s4.45-22.06,11.36-29.63c7.24-7.9,17.29-12.68,28.32-12.68s20.91,4.77,28.15,12.68c7.08,7.57,11.36,18.11,11.36,29.63s-4.28,22.06-11.36,29.63c-7.24,7.9-17.12,12.68-28.15,12.68s-21.07-4.77-28.32-12.68ZM866.34,259.29c0-8.07-3.13-15.31-7.9-20.41-4.61-5.1-11.03-8.23-18.11-8.23s-13.66,3.13-18.27,8.23c-4.77,5.1-7.74,12.35-7.74,20.41s2.96,15.31,7.74,20.41c4.61,5.1,11.03,8.23,18.27,8.23s13.5-3.13,18.11-8.23c4.77-5.1,7.9-12.35,7.9-20.41Z"/>
      <path class="cls-2" d="M888.07,259.29v-42.31h13.5v9.22c6.26-5.76,13.99-9.22,22.55-9.22,10.04,0,19.26,4.94,25.85,12.84,1.15,1.48,2.3,3.13,3.29,4.77.99-1.65,2.14-3.29,3.29-4.77,6.58-7.9,15.64-12.84,25.85-12.84s19.43,4.94,25.85,12.84c6.25,7.74,10.21,18.11,10.21,29.47v42.31h-13.66v-42.31c0-8.23-2.63-15.48-6.91-20.74-4.12-4.94-9.55-7.9-15.48-7.9s-11.36,2.96-15.31,7.9c-4.44,5.27-7.08,12.51-7.08,20.74v42.31h-13.5v-42.31c0-8.23-2.8-15.48-7.08-20.74-3.95-4.94-9.38-7.9-15.31-7.9s-11.52,2.96-15.48,7.9c-4.28,5.27-6.91,12.51-6.91,20.74h-.16v42.31h-13.5v-42.31Z"/>
    </g>
  </g>
  <g>
    <path class="cls-1" d="M522.36,163.52c-7.19-6.79-16.61-6.21-18.38-6.07.04-1.15.2-12.45-9.19-19.72-8.43-6.52-18.01-4.73-19.42-4.44-.68-21.3-21.45-39.79-42.69-38-.33-5.16-1.73-15.74-8.9-26.26-13.23-19.41-34.91-22.19-37.81-22.51-21.88-2.43-37.21,9.71-39.99,11.99-11.72-21.61-34.65-36.72-59.13-38.98-24.48-2.26-49.79,8.41-65.27,27.5-12.71-10.58-31.32-13.54-46.68-7.42-15.37,6.12-26.85,21.05-28.81,37.47.52-4.33-25.05-5.34-27.82-5.09-9.85.9-19.57,4.47-27.43,10.52-16.27,12.51-24.11,34.83-18.79,54.7-10.44-5.31-22.34-4.24-29.83,2.53-6.12,5.53-7.24,13-7.5,15.51-2.73-.76-10.98-2.69-19.24,1.39-12.1,5.97-19.05,22.19-13.62,32.6,7.71,14.77,28.55,14.61,45.06,12.37,2.52,14.86,17.86,24.93,32.89,26.04,15.03,1.11,29.66-4.76,43.2-11.39,3.26,4.64,17.25,23.41,43.1,28.78,35.33,7.34,61.46-16.88,63.84-19.16,2.57,5.43,5.43,13.27,6.33,23,1.9,20.7-6.36,36.55-10.11,42.84,9.88-5.69,22.09-13.92,34.55-25.59,12.79-11.97,21.95-23.94,28.33-33.61,9.48,17.8,28.67,28.38,48.79,26.88,19.59-1.46,37.71-15.3,44.27-33.82,10.25,7.25,25.54,6.21,34.72-2.36,6.03,1.8,29.13,7.9,50.93-4.47,6.88-3.9,11.92-8.68,15.47-12.83,4.25,1.11,12.44,2.6,22,.07,5.88-1.56,17.09-4.52,21.86-15.07,3.71-8.2,3.1-20.01-4.73-27.4Z"/>
    <path class="cls-2" d="M427.23,145.31c-1.88-2.59-18.67,14.92-48.64,22.13-22.96,5.52-47.67,5.4-68.68,16.16-9.53,4.88-17.85,11.79-26.08,18.65-12.61-18.54-12.56-46.59,4.31-61.35,9.6-8.4,22.65-11.37,34.14-16.91,12.94-6.24,24.16-16,32.14-27.95-20,12.69-41.63,22.81-64.19,30.04-.97.31-2.03.61-2.98.26-1.29-.48-1.87-1.96-2.27-3.28-3.61-11.91-5.22-24.43-4.72-36.87-5.2,12.62-6,27.01-2.25,40.13.62,2.16,1.36,4.43.86,6.62-.41,1.79-1.6,3.28-2.75,4.71-3.71,4.59-7.43,9.18-11.14,13.76-8.21-11.41-20.88-18.56-32.45-26.55-11.57-7.98-22.99-18.09-26.22-31.77.1,12.99,5.9,25.84,15.58,34.51,11.52,10.33,28.54,15.47,35.17,29.44,5.21,10.96,2.27,24.21,6.24,35.68,2.26,6.53,6.67,12.22,8.44,18.91,1.76,6.69-.52,15.43-7.19,17.21-18.35-30.74-48.59-54.17-82.93-64.26-11.27-3.31-22.88-5.23-34.38-7.57-11.96-2.44-22.97-6.61-34.42-10.21,3.6,3.33,9.64,8.38,18.06,12.83,16.63,8.8,26.99,7.06,46.43,13.43,17.02,5.58,28.8,13.38,32.61,16,10.8,7.45,29.75,20.79,33.6,43.05,1.32,7.64.4,13.67-.53,19.69-2.87,18.73-11.24,32.35-16.8,39.9,11.95-10.24,25.07-22.74,38.33-37.8,12.84-14.58,23.32-28.72,31.8-41.51,11.18-9.8,21.41-15.64,28.58-19.13,34.78-16.93,57.49-7.84,84.82-28.07,10.65-7.88,18.93-17.94,17.52-19.89Z"/>
  </g>
</svg>