<?xml version="1.0" standalone="no"?>
<!DOCTYPE svg PUBLIC "-//W3C//DTD SVG 20010904//EN"
 "http://www.w3.org/TR/2001/REC-SVG-20010904/DTD/svg10.dtd">
<svg version="1.0" xmlns="http://www.w3.org/2000/svg"
 width="507.000000pt" height="184.000000pt" viewBox="0 0 507.000000 184.000000"
 preserveAspectRatio="xMidYMid meet">

<g transform="translate(0.000000,184.000000) scale(0.100000,-0.100000)"
fill="#fff" stroke="none">
<path d="M4868 1148 l-3 -683 -492 -3 -493 -2 0 -104 0 -104 113 -120 112
-120 3 124 3 124 479 0 480 0 0 704 0 703 -77 64 c-42 35 -87 72 -100 82 l-23
18 -2 -683z"/>
<path d="M804 1655 c-251 -55 -424 -302 -386 -553 43 -275 294 -465 560 -423
223 34 425 230 330 318 -52 48 -116 41 -185 -19 -72 -62 -135 -88 -213 -87
-36 0 -79 6 -97 12 -111 41 -184 148 -182 266 1 119 50 200 149 250 102 51
207 43 298 -23 24 -17 57 -41 74 -53 47 -34 111 -32 149 6 38 38 38 76 0 128
-59 82 -169 151 -283 178 -76 18 -133 18 -214 0z"/>
<path d="M1555 1661 c-42 -18 -60 -50 -60 -107 0 -45 4 -58 28 -81 l27 -28
410 0 410 0 27 28 c24 23 28 36 28 82 0 46 -4 59 -28 82 l-27 28 -398 2 c-218
1 -406 -2 -417 -6z"/>
<path d="M2635 1661 c-42 -18 -60 -50 -60 -107 0 -45 4 -58 28 -81 l27 -28
410 0 410 0 27 28 c24 23 28 36 28 82 0 46 -4 59 -28 82 l-27 28 -398 2 c-218
1 -406 -2 -417 -6z"/>
<path d="M4044 1655 c-251 -55 -424 -302 -386 -553 43 -275 294 -465 560 -423
223 34 425 230 330 318 -52 48 -116 41 -185 -19 -72 -62 -135 -88 -213 -87
-36 0 -79 6 -97 12 -111 41 -184 148 -182 266 1 119 50 200 149 250 102 51
207 43 298 -23 24 -17 57 -41 74 -53 47 -34 111 -32 149 6 38 38 38 76 0 128
-59 82 -169 151 -283 178 -76 18 -133 18 -214 0z"/>
<path d="M1615 1271 c-42 -18 -60 -50 -60 -107 0 -45 4 -58 28 -81 l27 -28
255 0 255 0 27 28 c24 23 28 36 28 82 0 46 -4 59 -28 82 l-27 28 -243 2 c-133
1 -251 -2 -262 -6z"/>
<path d="M2695 1271 c-42 -18 -60 -50 -60 -107 0 -45 4 -58 28 -81 l27 -28
255 0 255 0 27 28 c24 23 28 36 28 82 0 46 -4 59 -28 82 l-27 28 -243 2 c-133
1 -251 -2 -262 -6z"/>
<path d="M1555 891 c-42 -18 -60 -50 -60 -107 0 -45 4 -58 28 -81 l27 -28 410
0 410 0 27 28 c24 23 28 36 28 82 0 46 -4 59 -28 82 l-27 28 -398 2 c-218 1
-406 -2 -417 -6z"/>
<path d="M2635 891 c-42 -18 -60 -50 -60 -107 0 -45 4 -58 28 -81 l27 -28 410
0 410 0 27 28 c24 23 28 36 28 82 0 46 -4 59 -28 82 l-27 28 -398 2 c-218 1
-406 -2 -417 -6z"/>
<path d="M111 360 l104 -99 1823 -1 c1002 0 1822 2 1822 5 0 4 -37 49 -81 100
l-82 95 -1845 0 -1845 0 104 -100z"/>
</g>
</svg>
