<?xml version="1.0" standalone="no"?>
<!DOCTYPE svg PUBLIC "-//W3C//DTD SVG 20010904//EN"
 "http://www.w3.org/TR/2001/REC-SVG-20010904/DTD/svg10.dtd">
<svg version="1.0" xmlns="http://www.w3.org/2000/svg"
 width="424.000000pt" height="100.000000pt" viewBox="0 0 424.000000 100.000000"
 preserveAspectRatio="xMidYMid meet">

<g transform="translate(0.000000,100.000000) scale(0.100000,-0.100000)"
fill="#4951FF" stroke="none">
<path d="M393 985 c-253 -55 -426 -311 -383 -565 55 -328 413 -512 709 -364
184 92 258 234 151 289 -54 28 -96 14 -180 -56 -62 -53 -111 -71 -190 -71
-160 0 -282 121 -282 281 0 251 283 373 478 207 54 -46 77 -56 124 -56 51 0
100 42 100 86 0 92 -184 229 -340 254 -82 12 -110 12 -187 -5z"/>
<path d="M1145 991 c-42 -18 -60 -50 -60 -107 0 -45 4 -58 28 -81 l27 -28 410
0 410 0 27 28 c24 23 28 36 28 82 0 46 -4 59 -28 82 l-27 28 -398 2 c-218 1
-406 -2 -417 -6z"/>
<path d="M2225 991 c-42 -18 -60 -50 -60 -107 0 -45 4 -58 28 -81 l27 -28 410
0 410 0 27 28 c24 23 28 36 28 82 0 46 -4 59 -28 82 l-27 28 -398 2 c-218 1
-406 -2 -417 -6z"/>
<path d="M3633 985 c-253 -55 -426 -311 -383 -565 55 -328 413 -512 709 -364
184 92 258 234 151 289 -54 28 -96 14 -180 -56 -62 -53 -111 -71 -190 -71
-160 0 -282 121 -282 281 0 251 283 373 478 207 54 -46 77 -56 124 -56 51 0
100 42 100 86 0 92 -184 229 -340 254 -82 12 -110 12 -187 -5z"/>
<path d="M1205 601 c-42 -18 -60 -50 -60 -107 0 -45 4 -58 28 -81 l27 -28 255
0 255 0 27 28 c24 23 28 36 28 82 0 46 -4 59 -28 82 l-27 28 -243 2 c-133 1
-251 -2 -262 -6z"/>
<path d="M2285 601 c-42 -18 -60 -50 -60 -107 0 -45 4 -58 28 -81 l27 -28 255
0 255 0 27 28 c24 23 28 36 28 82 0 46 -4 59 -28 82 l-27 28 -243 2 c-133 1
-251 -2 -262 -6z"/>
<path d="M1145 221 c-42 -18 -60 -50 -60 -107 0 -45 4 -58 28 -81 l27 -28 410
0 410 0 27 28 c24 23 28 36 28 82 0 46 -4 59 -28 82 l-27 28 -398 2 c-218 1
-406 -2 -417 -6z"/>
<path d="M2225 221 c-42 -18 -60 -50 -60 -107 0 -45 4 -58 28 -81 l27 -28 410
0 410 0 27 28 c24 23 28 36 28 82 0 46 -4 59 -28 82 l-27 28 -398 2 c-218 1
-406 -2 -417 -6z"/>
</g>
</svg>
